<?xml version="1.0" encoding="UTF-8" standalone="no"?>
<svg
   xmlns:dc="http://purl.org/dc/elements/1.1/"
   xmlns:cc="http://creativecommons.org/ns#"
   xmlns:rdf="http://www.w3.org/1999/02/22-rdf-syntax-ns#"
   xmlns:svg="http://www.w3.org/2000/svg"
   xmlns="http://www.w3.org/2000/svg"
   width="808.78"
   height="560.42"
   data-name="Layer 1"
   inkscapeVersion="1.0 (4035a4fb49, 2020-05-01)"
   sodipodiDocname="coding_illustration.svg"
   version="1.1"
   viewBox="0 0 808.78 560.42"
   xmlnsCc="http://creativecommons.org/ns#"
   xmlnsDc="http://purl.org/dc/elements/1.1/"
   xmlnsRdf="http://www.w3.org/1999/02/22-rdf-syntax-ns#"
   xmlnsSvg="http://www.w3.org/2000/svg"
   id="svg187">
  <metadata
     id="metadata193">
    <rdf:RDF>
      <cc:Work
         rdf:about="">
        <dc:format>image/svg+xml</dc:format>
        <dc:type
           rdf:resource="http://purl.org/dc/dcmitype/StillImage" />
        <dc:title></dc:title>
      </cc:Work>
    </rdf:RDF>
  </metadata>
  <defs
     id="defs191" />
  <g
     transform="matrix(0.4477122,0,0,0.4477122,-389.66624,192.96119)"
     inkscapeExport-xdpi="500.10001"
     inkscapeExport-ydpi="500.10001"
     id="g185">
    <path
       d="m 1996,132.21 a 348.2,348.2 0 0 1 -45.13,86.56 c -0.4384,0.61813 -0.8838,1.2226 -1.3325,1.8375 l -57.748,-18.702 c 0.2611,-0.59618 0.5456,-1.2642 0.85,-1.9938 18.186,-43.019 127.64,-305.25 116.02,-359.92 1.1102,4.4892 37.373,153.01 -12.655,292.21 z"
       fill="#e6e6e6"
       id="path2" />
    <path
       d="m 1962,222.38 c -0.7054,0.53164 -1.4314,1.0566 -2.1643,1.5681 l -43.321,-14.03 c 0.5182,-0.47888 1.1209,-1.0438 1.8151,-1.6812 11.34,-10.6 45.03,-42.358 77.66,-76.025 35.065,-36.18 68.914,-74.558 72.515,-91.249 -0.6774,3.8081 -22.043,119.67 -106.5,181.42 z"
       fill="#e6e6e6"
       id="path4" />
    <path
       d="m 2027.3,400.41 h -742.63 a 24.901,24.901 0 0 1 -24.901,-24.901 q 403.81,-46.93 792.44,0 a 24.901,24.901 0 0 1 -24.901,24.901 z"
       fill="#2f2e41"
       id="path6" />
    <path
       d="m 2052.2,376.98 -792.44,-1.4648 91.84,-154.53 0.4394,-0.73238 v -340.57 a 31.475,31.475 0 0 1 31.478,-31.478 h 540.53 a 31.475,31.475 0 0 1 31.478,31.478 v 342.92 z"
       fill="#3f3d56"
       id="path8" />
    <path
       d="m 1382.8,-129.83 a 10.265,10.265 0 0 0 -10.253,10.253 v 310.53 a 10.265,10.265 0 0 0 10.253,10.253 h 546.36 a 10.266,10.266 0 0 0 10.253,-10.253 v -310.53 a 10.265,10.265 0 0 0 -10.253,-10.253 z"
       fill="#0c0d16"
       id="path10" />
    <path
       d="m 1386.4,242.22 a 4.4064,4.4064 0 0 0 -3.9923,2.5576 l -28.299,61.52 a 4.3941,4.3941 0 0 0 3.9916,6.231 h 595.11 a 4.3938,4.3938 0 0 0 3.9294,-6.3597 l -30.76,-61.52 a 4.372,4.372 0 0 0 -3.9294,-2.4289 z"
       fill="#2f2e41"
       id="path12" />
    <circle
       cx="1653.8"
       cy="-141.55"
       r="6.5914001"
       fill="#ffffff"
       id="circle14" />
    <path
       d="m 1595.3,324.24 a 4.401,4.401 0 0 0 -4.2426,3.2514 l -7.0985,26.366 a 4.3939,4.3939 0 0 0 4.2426,5.5372 h 135 a 4.3933,4.3933 0 0 0 4.1511,-5.8318 l -9.1261,-26.366 a 4.3966,4.3966 0 0 0 -4.1525,-2.9567 z"
       fill="#2f2e41"
       id="path16" />
    <polygon
       transform="translate(1259.8,-160.01)"
       points="695.76,375.13 695.76,380.98 91.84,380.98 92.295,380.25 92.295,375.13 "
       fill="#2f2e41"
       id="polygon18" />
    <g
       fill="#e6e6e6"
       id="g26">
      <path
         d="m 1767.8,-74.967 h -142.49 v 2.6026 h 142.49 a 26.451,26.451 0 0 1 0,52.902 h -215.61 a 26.451,26.451 0 0 1 0,-52.902 h 8.0574 v -2.6026 h -8.0574 a 29.0535,29.0535 0 0 0 0,58.107 h 215.61 a 29.0535,29.0535 0 1 0 0,-58.107 z"
         id="path20" />
      <path
         d="m 1767.8,14.822 h -142.49 v 2.6026 h 142.49 a 26.451,26.451 0 0 1 0,52.902 h -215.61 a 26.451,26.451 0 0 1 0,-52.902 h 8.0574 V 14.822 h -8.0574 a 29.0535,29.0535 0 0 0 0,58.107 h 215.61 a 29.0535,29.0535 0 1 0 0,-58.107 z"
         id="path22" />
      <path
         d="m 1767.8,104.61 h -142.49 v 2.6026 h 142.49 a 26.451,26.451 0 1 1 0,52.902 h -215.61 a 26.451,26.451 0 0 1 0,-52.902 h 8.0574 V 104.61 h -8.0574 a 29.0535,29.0535 0 0 0 0,58.107 h 215.61 a 29.0535,29.0535 0 1 0 0,-58.107 z"
         id="path24" />
    </g>
    <g
       fill="#3f3d56"
       id="g34">
      <path
         d="m 1576.3,-81.842 a 7.7385,7.7385 0 0 0 0,15.475 h 33.945 a 7.738543,7.738543 0 1 0 0.2541,-15.475 q -0.127,-0.002 -0.2541,0 z"
         data-name="Path 40"
         id="path28" />
      <path
         d="m 1576.3,9.2476 a 7.7385,7.7385 0 0 0 0,15.475 h 33.945 a 7.738543,7.738543 0 0 0 0.2541,-15.475 q -0.127,-0.002 -0.2541,0 z"
         data-name="Path 40"
         id="path30" />
      <path
         d="m 1576.3,97.735 a 7.7385,7.7385 0 0 0 0,15.475 h 33.945 a 7.738543,7.738543 0 0 0 0.2541,-15.475 q -0.127,-0.002 -0.2541,0 z"
         data-name="Path 40"
         id="path32" />
    </g>
    <path
       id="ab3f55ca-45f9-4d6f-a8ad-e44fa73330dd"
       d="m 1562.8,-53.651 a 7.7385,7.7385 0 0 0 0,15.475 h 194 a 7.738543,7.738543 0 1 0 0.2541,-15.475 q -0.127,-0.002 -0.2541,0 z"
       fill="#17b06b"
       data-name="Path 40" />
    <path
       id="b755e68c-1f13-420d-a9db-7573ff270e8f"
       d="m 1562.8,36.138 a 7.7385,7.7385 0 0 0 0,15.475 h 194 a 7.738543,7.738543 0 1 0 0.2541,-15.475 q -0.127,-0.002 -0.2541,0 z"
       fill="#17b06b"
       data-name="Path 40" />
    <path
       id="f0f56a0b-ed67-4282-9bfe-4d2fc6a8304e"
       d="m 1562.8,125.93 a 7.7385,7.7385 0 0 0 0,15.475 h 194 a 7.738543,7.738543 0 1 0 0.2541,-15.475 q -0.127,-0.002 -0.2541,0 z"
       fill="#e6e6e6"
       data-name="Path 40" />
    <circle
       cx="1490.8"
       cy="-46.522999"
       r="15.495"
       fill="#17b06b"
       id="circle39" />
    <polygon
       transform="translate(1259.8,-160.01)"
       points="229.83,114.75 237.05,107.13 239.46,109.42 229.58,119.85 225.06,114.04 227.69,112 "
       fill="#ffffff"
       id="polygon41" />
    <circle
       cx="1490.8"
       cy="43.265999"
       r="15.495"
       fill="#17b06b"
       id="circle43" />
    <polygon
       transform="translate(1259.8,-160.01)"
       points="229.83,204.54 237.05,196.92 239.46,199.21 229.58,209.64 225.06,203.83 227.69,201.79 "
       fill="#ffffff"
       id="polygon45" />
    <circle
       cx="1490.8"
       cy="133.05"
       r="15.495"
       fill="#e6e6e6"
       id="circle47" />
    <circle
       cx="1830.4"
       cy="-46.522999"
       r="15.495"
       fill="#ff3c5c"
       id="circle49" />
    <circle
       cx="1830.4"
       cy="43.265999"
       r="15.495"
       fill="#ff3c5c"
       id="circle51" />
    <circle
       cx="1830.4"
       cy="133.05"
       r="15.495"
       fill="#e6e6e6"
       id="circle53" />
    <g
       fill="#ffffff"
       id="g69">
      <polygon
         transform="translate(1259.8,-160.01)"
         points="229.83,294.33 237.05,286.71 239.46,288.99 229.58,299.43 225.06,293.62 227.69,291.58 "
         id="polygon55" />
      <rect
         transform="rotate(-45)"
         x="1326.1"
         y="1255.1"
         width="1.8239"
         height="12.254"
         id="rect57" />
      <rect
         transform="rotate(-45)"
         x="1321.2"
         y="1260.6"
         width="12.254"
         height="1.8239"
         id="rect59" />
      <rect
         transform="rotate(-45)"
         x="1262.6"
         y="1318.6"
         width="1.8239"
         height="12.254"
         id="rect61" />
      <rect
         transform="rotate(-45)"
         x="1257.7"
         y="1324.1"
         width="12.254"
         height="1.8239"
         id="rect63" />
      <rect
         transform="rotate(-45)"
         x="1199.1"
         y="1382.1"
         width="1.8239"
         height="12.254"
         id="rect65" />
      <rect
         transform="rotate(-45)"
         x="1194.2"
         y="1387.6"
         width="12.254"
         height="1.8239"
         id="rect67" />
    </g>
    <g
       id="g79">
      <path
         d="m 1881,228.54 a 1.0717,1.0717 0 0 0 -1.0331,0.79175 l -1.7286,6.4204 a 1.07,1.07 0 0 0 1.0331,1.3484 h 32.874 a 1.0698,1.0698 0 0 0 1.0109,-1.4202 l -2.2224,-6.4204 a 1.0706,1.0706 0 0 0 -1.0112,-0.72 z"
         fill="#714cdf"
         id="path71" />
      <rect
         x="1994.3"
         y="-182.84"
         width="581.71997"
         height="377.97"
         fill="#0c0d16"
         stroke-width="2.9675"
         id="rect73" />
      <polygon
         transform="matrix(2.9675,0,0,2.9675,1688.9,-317.74)"
         points="216.92,158.28 186.13,158.28 178.68,205.58 228.34,205.58 "
         fill="#79759d"
         id="polygon75" />
      <rect
         x="2185.5"
         y="267.72"
         width="207.25"
         height="45.105999"
         fill="#3f3d56"
         stroke-width="2.9675"
         id="rect77" />
    </g>
    <circle
       cx="2041.6"
       cy="-145.14999"
       r="10.179"
       fill="#ffffff"
       stroke-width="2.9675"
       id="circle81" />
    <g
       stroke-width="2.9675"
       id="g103">
      <circle
         cx="2071.8999"
         cy="-145.14999"
         r="10.179"
         fill="#16a4de"
         id="circle83" />
      <circle
         cx="2100.5"
         cy="-145.14999"
         r="10.179"
         fill="#f97515"
         id="circle85" />
      <rect
         x="1994.3"
         y="122.16"
         width="581.71997"
         height="72.971001"
         fill="#3f3d56"
         id="rect87" />
      <circle
         cx="2291.5"
         cy="158.66"
         r="19.882"
         fill="#714cdf"
         id="circle89" />
      <rect
         x="2206.8"
         y="30.497"
         width="169.39"
         height="12.345"
         fill="#16a4de"
         id="rect91" />
      <rect
         x="2282.3"
         y="62.960999"
         width="169.39"
         height="12.345"
         fill="#f97515"
         id="rect93" />
      <rect
         x="2166"
         y="0.61387998"
         width="142.14"
         height="12.345"
         fill="#16a4de"
         id="rect95" />
      <rect
         x="2337.7"
         y="0.61387998"
         width="142.14"
         height="12.345"
         fill="#16a4de"
         id="rect97" />
      <rect
         x="2206.8"
         y="-33.839001"
         width="127.1"
         height="12.345"
         fill="#f97515"
         id="rect99" />
      <rect
         x="2367"
         y="-33.839001"
         width="127.1"
         height="12.345"
         fill="#f97515"
         id="rect101" />
    </g>
    <g
       fill="#ffffff"
       stroke-width="2.9675"
       id="g115">
      <rect
         x="2113.3"
         y="30.497"
         width="63.713001"
         height="12.345"
         id="rect105" />
      <rect
         x="2176.8"
         y="62.960999"
         width="63.713001"
         height="12.345"
         id="rect107" />
      <rect
         x="2072.5"
         y="0.61387998"
         width="63.713001"
         height="12.345"
         id="rect109" />
      <rect
         x="2072.5"
         y="-93.427002"
         width="63.713001"
         height="12.345"
         id="rect111" />
      <rect
         x="2113.3"
         y="-62.505001"
         width="63.713001"
         height="12.345"
         id="rect113" />
    </g>
    <g
       stroke-width="2.9675"
       id="g123">
      <rect
         x="2206.8"
         y="-62.505001"
         width="127.1"
         height="12.345"
         fill="#f97515"
         id="rect117" />
      <rect
         x="2367"
         y="-62.505001"
         width="127.1"
         height="12.345"
         fill="#f97515"
         id="rect119" />
      <rect
         x="2113.3"
         y="-33.839001"
         width="63.713001"
         height="12.345"
         fill="#ffffff"
         id="rect121" />
    </g>
    <g
       id="g131">
      <rect
         x="2161.7"
         y="-93.427002"
         width="131.22"
         height="12.345"
         fill="#16a4de"
         stroke-width="2.9675"
         id="rect125" />
      <rect
         x="2320.3999"
         y="-93.427002"
         width="93.18"
         height="12.345"
         fill="#16a4de"
         stroke-width="2.9675"
         id="rect127" />
      <rect
         x="1291.4"
         y="-194.24001"
         width="178.57001"
         height="122.77"
         fill="#f97515"
         stroke-width="2.9727"
         id="rect129" />
    </g>
    <g
       fill="#ffffff"
       stroke-width="2.9727"
       id="g139">
      <path
         d="m 1356.7,-108.74 a 4.1916,4.1916 0 0 1 -2.5566,-0.89182 l -26.755,-21.166 a 4.0132,4.0132 0 0 1 -1.5756,-3.2106 4.1024,4.1024 0 0 1 1.5458,-3.2403 l 26.755,-21.552 a 4.1436,4.1436 0 1 1 5.2023,6.4508 l -22.742,18.312 22.712,17.836 a 4.1321,4.1321 0 0 1 -2.5863,7.3724 z"
         id="path133" />
      <path
         d="m 1405.2,-108.74 a 4.1321,4.1321 0 0 1 -2.5566,-7.4616 l 22.682,-17.836 -22.712,-18.282 a 4.1343,4.1343 0 1 1 5.1726,-6.4508 l 26.755,21.552 a 3.9835,3.9835 0 0 1 1.6945,3.1808 4.0727,4.0727 0 0 1 -1.5458,3.2106 l -26.755,21.166 a 4.1916,4.1916 0 0 1 -2.7349,0.92155 z"
         id="path135" />
      <path
         d="m 1369.7,-108.74 a 3.9537,3.9537 0 0 1 -1.7242,-0.38646 4.1321,4.1321 0 0 1 -2.0512,-5.4698 l 19.501,-42.718 a 4.1618,4.1618 0 0 1 5.4996,-2.0215 4.1024,4.1024 0 0 1 2.0214,5.4698 l -19.501,42.718 a 4.1321,4.1321 0 0 1 -3.7456,2.4079 z"
         id="path137" />
    </g>
    <path
       d="m 1567.4,251.66 c 0,0 40.913,-8.5209 31.546,30.951 -9.367,39.4719 21.929,34.115 15.851,65.034 -6.0774,30.92 -47.397,105.6 -47.397,105.6 h -77.596 l 39.472,-145.45 z"
       opacity="0.08"
       stroke-width="3.1327"
       id="path141" />
    <path
       d="m 1536,374.31 c 0,0 51.971,-12.813 47.992,-43.857 -3.9785,-31.045 -37.592,-13.596 -37.592,-13.596 0,0 8.7715,-42.291 21.584,-54.352 12.813,-12.061 -14.41,-32.674 -35.211,-12.75 -20.801,19.924 -24.78,3.9472 -41.571,24.748 -16.791,20.8008 -16.791,79.821 -16.791,79.821 z"
       fill="#f4a28c"
       stroke-width="3.1327"
       id="path143" />
    <polygon
       transform="matrix(3.1327,0,0,3.1327,975.84,-218.96)"
       points="159.14,182.95 178.8,189.38 164.5,246.06 133.35,233.8 "
       fill="#68e1fd"
       id="polygon145" />
    <path
       d="m 1758.5,253.82 c 0,0 35.829,-16.51 51.168,14.87 15.339,31.38 24.413,39.488 24.413,39.488 v 98.794 l -78.567,-59.042 z"
       opacity="0.08"
       stroke-width="2.9272"
       id="path147" />
    <path
       d="m 1750.2,382.4 c 0,0 -51.971,-12.781 -47.993,-43.857 3.978,-31.076 37.592,-13.596 37.592,-13.596 0,0 -8.8028,-42.322 -21.584,-54.352 -12.781,-12.029 14.379,-32.705 35.18,-12.75 20.801,19.955 24.811,3.9472 41.602,24.717 16.791,20.77 16.791,79.852 16.791,79.852 z"
       fill="#f4a28c"
       stroke-width="3.1327"
       id="path149" />
    <polygon
       transform="matrix(3.1327,0,0,3.1327,974.35,-227.66)"
       points="247.65,194.75 261.95,251.43 293.1,239.17 267.31,188.32 "
       fill="#68e1fd"
       id="polygon151" />
    <rect
       x="929.63"
       y="-342.73001"
       width="354.12"
       height="592.59003"
       fill="#0c0d16"
       stroke-width="5.2146"
       id="rect153" />
    <polyline
       transform="matrix(5.2146,0,0,5.2146,602.16,-554.34)"
       points="83.74 75.36 108.66 75.36 108.66 116.72"
       fill="none"
       stroke="#ffffff"
       stroke-miterlimit="10"
       id="polyline155" />
    <g
       stroke-width="5.2146"
       id="g163">
      <rect
         x="982.87"
         y="-291.06"
         width="171.77"
         height="27.481001"
         fill="#f97515"
         id="rect157" />
      <rect
         x="993.56"
         y="-189.48"
         width="90.526001"
         height="56.213001"
         fill="#16a4de"
         id="rect159" />
      <line
         x1="1038.8"
         x2="1167.3"
         y1="54.305"
         y2="54.305"
         fill="none"
         stroke="#ffffff"
         stroke-miterlimit="10"
         id="line161" />
    </g>
    <g
       fill="#16a4de"
       stroke-width="5.2146"
       id="g171">
      <rect
         x="1123.5"
         y="-78.980003"
         width="90.526001"
         height="56.213001"
         id="rect165" />
      <rect
         x="993.56"
         y="26.198"
         width="90.526001"
         height="56.213001"
         id="rect167" />
      <rect
         x="1122"
         y="26.198"
         width="90.526001"
         height="56.213001"
         id="rect169" />
    </g>
    <rect
       x="993.56"
       y="157.61"
       width="219.00999"
       height="39.944"
       fill="#ffffff"
       opacity="0.1"
       stroke-width="5.2146"
       id="rect173" />
    <g
       fill="#ff3c5c"
       stroke-width="4.3675"
       id="g181">
      <path
         d="m 1167.9,247.83 c 0,0 -64.552,-17.47 -78.615,-77.741 0,0 100.06,-20.221 102.9,82.982 z"
         opacity="0.58"
         id="path175" />
      <path
         d="m 1175.8,241.41 c 0,0 -45.072,-71.321 -5.372,-138.14 0,0 76.082,48.348 42.277,138.19 z"
         opacity="0.73"
         id="path177" />
      <path
         d="m 1187.5,241.49 c 0,0 23.846,-75.339 96.085,-89.621 0,0 13.496,48.916 -46.688,89.796 z"
         id="path179" />
    </g>
    <polygon
       transform="matrix(4.3675,0,0,4.3675,835.16,-682.89)"
       points="72.94,231.76 91.82,231.84 94.6,211.36 69.95,211.26 "
       fill="#32334a"
       id="polygon183" />
  </g>
</svg>
